<?xml version="1.0" encoding="UTF-8" standalone="no"?>
<svg
   width="16"
   height="16"
   fill="currentColor"
   class="bi bi-house-fill"
   viewBox="0 0 16 16"
   version="1.1"
   id="svg6"
   sodipodi:docname="house-fill.svg"
   inkscape:version="1.2.2 (732a01da63, 2022-12-09)"
   xmlns:inkscape="http://www.inkscape.org/namespaces/inkscape"
   xmlns:sodipodi="http://sodipodi.sourceforge.net/DTD/sodipodi-0.dtd"
   xmlns="http://www.w3.org/2000/svg"
   xmlns:svg="http://www.w3.org/2000/svg">
  <defs
     id="defs10" />
  <sodipodi:namedview
     id="namedview8"
     pagecolor="#ffffff"
     bordercolor="#999999"
     borderopacity="1"
     inkscape:showpageshadow="0"
     inkscape:pageopacity="0"
     inkscape:pagecheckerboard="0"
     inkscape:deskcolor="#d1d1d1"
     showgrid="false"
     inkscape:zoom="52.3125"
     inkscape:cx="8.0095579"
     inkscape:cy="8.0095579"
     inkscape:window-width="1920"
     inkscape:window-height="1017"
     inkscape:window-x="-8"
     inkscape:window-y="-8"
     inkscape:window-maximized="1"
     inkscape:current-layer="svg6" />
  <path
     d="M8.707 1.5a1 1 0 0 0-1.414 0L.646 8.146a.5.5 0 0 0 .708.708L8 2.207l6.646 6.647a.5.5 0 0 0 .708-.708L13 5.793V2.5a.5.5 0 0 0-.5-.5h-1a.5.5 0 0 0-.5.5v1.293z"
     id="path2" />
  <path
     d="m8 3.293 6 6V13.5a1.5 1.5 0 0 1-1.5 1.5h-9A1.5 1.5 0 0 1 2 13.5V9.293z"
     id="path4" />
  <path
     style="fill:#cccccc;stroke-width:0.019146"
     d="M 0.84377665,8.9639516 C 0.70795557,8.9205958 0.57554669,8.7818447 0.53417048,8.6395154 0.49489872,8.5044253 0.50703748,8.3930831 0.57456301,8.2690164 0.63874501,8.151093 7.3338521,1.4580369 7.474313,1.3713801 c 0.3220737,-0.198702 0.7304161,-0.1986046 1.051374,2.506e-4 0.055576,0.034433 0.5930838,0.55511 1.2842584,1.2440446 l 1.1886796,1.1848265 0.0061,-0.7055078 c 0.0067,-0.7782584 0.0057,-0.7709511 0.132525,-0.9154229 0.03541,-0.040328 0.107452,-0.093382 0.160097,-0.1178973 0.09396,-0.043756 0.106963,-0.044577 0.708453,-0.044761 l 0.612734,-1.867e-4 0.101798,0.050728 c 0.105229,0.052438 0.199595,0.1610304 0.243561,0.2802817 0.01651,0.044772 0.02282,0.5081363 0.02389,1.7524201 l 0.0015,1.6915542 1.202431,1.2045031 c 0.810575,0.8119717 1.215616,1.2309594 1.24289,1.2856847 0.09711,0.1948605 0.06221,0.4047486 -0.09316,0.5601113 C 15.186071,8.9973511 14.976255,9.032264 14.781301,8.9352105 14.724781,8.9070733 13.682434,7.8777034 11.350033,5.546663 L 7.9999463,2.1985301 4.6499135,5.5467047 C 2.2542875,7.9410021 1.27604,8.9067449 1.2161987,8.936528 1.1071075,8.9908225 0.96153554,9.0015419 0.84377665,8.9639516 Z"
     id="path862" />
  <path
     style="fill:#cccccc;stroke-width:0.019146"
     d="M 3.2885215,14.975284 C 2.6880342,14.887021 2.1974634,14.435903 2.0538452,13.839904 2.018559,13.693471 2.0169886,13.593634 2.0168603,11.488627 L 2.0167264,9.2902767 5.0083632,6.2986858 8,3.3070948 l 2.991637,2.991591 2.991637,2.9915909 -1.34e-4,2.1983503 c -1.34e-4,2.129333 -0.0013,2.203337 -0.03822,2.357204 -0.124673,0.520046 -0.508919,0.921132 -1.041697,1.087352 l -0.172043,0.05368 -4.6642772,0.0026 c -2.5912799,0.0014 -4.714991,-0.0049 -4.7783841,-0.01417 z"
     id="path864" />
</svg>
